<?xml version="1.0" encoding="utf-8"?>
<!-- Generator: Adobe Illustrator 14.0.0, SVG Export Plug-In  -->
<!DOCTYPE svg PUBLIC "-//W3C//DTD SVG 1.1//EN" "http://www.w3.org/Graphics/SVG/1.1/DTD/svg11.dtd" [
	<!ENTITY ns_flows "http://ns.adobe.com/Flows/1.0/">
]>
<svg version="1.1"
	 xmlns="http://www.w3.org/2000/svg" xmlns:xlink="http://www.w3.org/1999/xlink" xmlns:a="http://ns.adobe.com/AdobeSVGViewerExtensions/3.0/"
	 x="0px" y="0px" width="271px" height="223px" viewBox="2.72 -19.132 271 223" enable-background="new 2.72 -19.132 271 223"
	 xml:space="preserve">
<defs>
</defs>
<path fill="#FF63FF" stroke="#000000" d="M65.72,65.868c3.374,3.823,12-70,49-34s54,35,60,20s41-29,38-3s0,54-18,64s-46-9-49,23
	s-2,44-30,36s-36-4-56-13s-10,5-25,19s-53-14-23-39s32-15,58-20s52-19,29-23s-39,15-50-6S50.72,48.868,65.72,65.868z"/>
<path fill="#000AFF" stroke="#000000" stroke-width="4" d="M108.72,66.868c-24.745-42.892,53-92,66-47s15,65-10,88s17,16,13,40
	s-40,53-83,22s-103-64-51-69S123.72,92.868,108.72,66.868z"/>
<circle fill="#00BDFF" stroke="#000000" stroke-width="2" cx="198.72" cy="110.868" r="61"/>
</svg>
